<svg xmlns="http://www.w3.org/2000/svg" xmlns:svg="http://www.w3.org/2000/svg" id="svg8" width="210.563" height="212.764" version="1.1" viewBox="0 0 55.712 56.294"><metadata id="metadata5"/><g id="layer1" transform="translate(-52.226126,-35.868607)"><path id="path835" fill="none" fill-opacity="1" stroke="#fff" stroke-dasharray="none" stroke-miterlimit="4" stroke-opacity="1" stroke-width="4.511" d="m 60.407343,46.850235 a 25.891367,25.891367 0 0 1 19.38343,-8.726128 25.891367,25.891367 0 0 1 25.891367,25.891367 v 0 0 a 25.891367,25.891367 0 0 1 -25.891367,25.891365 25.891367,25.891367 0 0 1 -17.925528,-7.2088"/><g id="g880" fill="#fff" fill-opacity="1" stroke="#fff" stroke-opacity="1" transform="matrix(1.40502,0,0,1.7642594,-41.320405,-143.48343)"><rect id="rect817" width="10.721" height="6.109" x="67.06" y="110.06" fill="#fff" fill-opacity="1" stroke="#fff" stroke-dasharray="none" stroke-miterlimit="4" stroke-opacity="1" stroke-width=".96" ry=".499"/><rect id="rect817-6" width="10.721" height="6.109" x="81.108" y="110.06" fill="#fff" fill-opacity="1" stroke="#fff" stroke-dasharray="none" stroke-miterlimit="4" stroke-opacity="1" stroke-width=".96" ry=".499"/><g id="g873" fill="#fff" fill-opacity="1" stroke="#fff" stroke-opacity="1" transform="translate(0,8.9958338)"><rect id="rect817-7" width="10.721" height="6.109" x="67.06" y="110.06" fill="#fff" fill-opacity="1" stroke="#fff" stroke-dasharray="none" stroke-miterlimit="4" stroke-opacity="1" stroke-width=".96" ry=".499"/><rect id="rect817-6-5" width="10.721" height="6.109" x="81.108" y="110.06" fill="#fff" fill-opacity="1" stroke="#fff" stroke-dasharray="none" stroke-miterlimit="4" stroke-opacity="1" stroke-width=".96" ry=".499"/></g></g></g></svg>