<svg xmlns="http://www.w3.org/2000/svg" xmlns:svg="http://www.w3.org/2000/svg" id="svg942" width="219.71" height="219.364" version="1.1" viewBox="0 0 58.132 58.04"><metadata id="metadata939"/><g id="layer1" transform="translate(-81.303242,-61.605015)"><path id="path915" fill="#d3dae3" fill-opacity="1" stroke="none" stroke-dasharray="none" stroke-miterlimit="4" stroke-opacity="1" stroke-width="9.223" d="m 112.14516,61.605015 v 20.084562 a 9.4494048,9.4494048 0 0 1 7.10396,9.141559 9.4494048,9.4494048 0 0 1 -0.16226,1.704808 l 18.04334,9.346196 a 29.065627,29.065627 0 0 0 2.30063,-10.818975 29.065627,29.065627 0 0 0 -4.34598,-15.778881 29.065627,29.065627 0 0 0 -22.93969,-13.679269 z m -4.48551,0.04961 a 29.065627,29.065627 0 0 0 -26.352397,28.442189 29.065627,29.065627 0 0 0 28.577577,29.544446 29.065627,29.065627 0 0 0 24.86774,-13.27205 l -17.89503,-9.269206 a 9.4494048,9.4494048 0 0 1 -7.05797,3.180166 9.4494048,9.4494048 0 0 1 -9.44904,-9.449034 9.4494048,9.4494048 0 0 1 7.30912,-9.1922 z"/></g></svg>