<svg xmlns="http://www.w3.org/2000/svg" xmlns:svg="http://www.w3.org/2000/svg" id="svg8" width="219.71" height="219.364" version="1.1" viewBox="0 0 58.132 58.04"><metadata id="metadata5"/><g id="layer1" transform="translate(-127.13451,-23.460917)"><path id="path915" fill="#fff" fill-opacity="1" stroke="none" stroke-dasharray="none" stroke-miterlimit="4" stroke-opacity="1" stroke-width="9.223" d="m 157.97643,23.460917 v 20.084562 a 9.4494047,9.4494047 0 0 1 7.10396,9.14156 9.4494047,9.4494047 0 0 1 -0.16226,1.704806 l 18.04334,9.3462 A 29.065627,29.065627 0 0 0 185.2621,52.919068 29.065627,29.065627 0 0 0 180.91612,37.140186 29.065627,29.065627 0 0 0 157.97643,23.460917 Z m -4.48551,0.04961 a 29.065627,29.065627 0 0 0 -26.3524,28.44219 29.065627,29.065627 0 0 0 28.57758,29.544449 29.065627,29.065627 0 0 0 24.86774,-13.272055 l -17.89503,-9.269204 a 9.4494047,9.4494047 0 0 1 -7.05797,3.180168 9.4494047,9.4494047 0 0 1 -9.44904,-9.449036 9.4494047,9.4494047 0 0 1 7.30912,-9.192201 z"/></g></svg>